<svg version="1.2" preserveAspectRatio="xMidYMid meet" viewBox="63.75000000000001 150.749996382 249 81.749998038" zoomAndPan="magnify" xmlns:xlink="http://www.w3.org/1999/xlink" xmlns="http://www.w3.org/2000/svg" style="max-height: 500px" width="249" height="81.749998038"><defs><clipPath id="f019d4c323"><path d="M 141.175781 93.015625 L 177.847656 93.015625 L 177.847656 129.6875 L 141.175781 129.6875 Z M 141.175781 93.015625"/></clipPath><clipPath id="3805e9d3f2"><path d="M 159.511719 93.015625 C 149.386719 93.015625 141.175781 101.226562 141.175781 111.351562 C 141.175781 121.480469 149.386719 129.6875 159.511719 129.6875 C 169.640625 129.6875 177.847656 121.480469 177.847656 111.351562 C 177.847656 101.226562 169.640625 93.015625 159.511719 93.015625 Z M 159.511719 93.015625"/></clipPath></defs><g id="1db7502ed5"><g clip-path="url(#f019d4c323)" clip-rule="nonzero"><g clip-path="url(#3805e9d3f2)" clip-rule="nonzero"><path d="M 141.175781 93.015625 L 177.847656 93.015625 L 177.847656 129.6875 L 141.175781 129.6875 Z M 141.175781 93.015625" style="stroke:none;fill-rule:nonzero;fill:#ffffff;fill-opacity:1;"/></g></g><g style="fill:#bb8100;fill-opacity:1;"><g transform="translate(66.199038, 198.052746)"><path d="M 1.53125 -15.296875 C 1.53125 -18.421875 2.117188 -21.164062 3.296875 -23.53125 C 4.484375 -25.90625 6.09375 -27.726562 8.125 -29 C 10.164062 -30.269531 12.445312 -30.90625 14.96875 -30.90625 C 16.96875 -30.90625 18.796875 -30.484375 20.453125 -29.640625 C 22.109375 -28.804688 23.410156 -27.679688 24.359375 -26.265625 L 24.359375 -40.40625 L 33.6875 -40.40625 L 33.6875 0 L 24.359375 0 L 24.359375 -4.375 C 23.484375 -2.914062 22.234375 -1.75 20.609375 -0.875 C 18.992188 0 17.113281 0.4375 14.96875 0.4375 C 12.445312 0.4375 10.164062 -0.207031 8.125 -1.5 C 6.09375 -2.789062 4.484375 -4.628906 3.296875 -7.015625 C 2.117188 -9.398438 1.53125 -12.160156 1.53125 -15.296875 Z M 24.359375 -15.234375 C 24.359375 -17.566406 23.710938 -19.40625 22.421875 -20.75 C 21.128906 -22.09375 19.550781 -22.765625 17.6875 -22.765625 C 15.832031 -22.765625 14.257812 -22.097656 12.96875 -20.765625 C 11.675781 -19.441406 11.03125 -17.617188 11.03125 -15.296875 C 11.03125 -12.960938 11.675781 -11.113281 12.96875 -9.75 C 14.257812 -8.382812 15.832031 -7.703125 17.6875 -7.703125 C 19.550781 -7.703125 21.128906 -8.375 22.421875 -9.71875 C 23.710938 -11.0625 24.359375 -12.898438 24.359375 -15.234375 Z M 24.359375 -15.234375" style="stroke:none"/></g></g><g style="fill:#bb8100;fill-opacity:1;"><g transform="translate(103.278543, 198.052746)"><path d="M 33.46875 -30.46875 L 33.46875 0 L 24.140625 0 L 24.140625 -4.15625 C 23.191406 -2.800781 21.90625 -1.710938 20.28125 -0.890625 C 18.664062 -0.078125 16.875 0.328125 14.90625 0.328125 C 12.570312 0.328125 10.515625 -0.1875 8.734375 -1.21875 C 6.953125 -2.257812 5.566406 -3.765625 4.578125 -5.734375 C 3.597656 -7.703125 3.109375 -10.015625 3.109375 -12.671875 L 3.109375 -30.46875 L 12.390625 -30.46875 L 12.390625 -13.921875 C 12.390625 -11.890625 12.914062 -10.304688 13.96875 -9.171875 C 15.03125 -8.046875 16.453125 -7.484375 18.234375 -7.484375 C 20.054688 -7.484375 21.492188 -8.046875 22.546875 -9.171875 C 23.609375 -10.304688 24.140625 -11.890625 24.140625 -13.921875 L 24.140625 -30.46875 Z M 33.46875 -30.46875" style="stroke:none"/></g></g><g style="fill:#bb8100;fill-opacity:1;"><g transform="translate(140.084996, 198.052746)"><path d="M 32.109375 -15.734375 C 32.109375 -14.859375 32.054688 -13.945312 31.953125 -13 L 10.8125 -13 C 10.957031 -11.101562 11.566406 -9.65625 12.640625 -8.65625 C 13.710938 -7.65625 15.03125 -7.15625 16.59375 -7.15625 C 18.925781 -7.15625 20.550781 -8.140625 21.46875 -10.109375 L 31.40625 -10.109375 C 30.894531 -8.097656 29.972656 -6.289062 28.640625 -4.6875 C 27.316406 -3.09375 25.648438 -1.835938 23.640625 -0.921875 C 21.640625 -0.015625 19.398438 0.4375 16.921875 0.4375 C 13.941406 0.4375 11.285156 -0.195312 8.953125 -1.46875 C 6.617188 -2.75 4.796875 -4.570312 3.484375 -6.9375 C 2.179688 -9.300781 1.53125 -12.066406 1.53125 -15.234375 C 1.53125 -18.398438 2.175781 -21.164062 3.46875 -23.53125 C 4.757812 -25.90625 6.566406 -27.726562 8.890625 -29 C 11.222656 -30.269531 13.898438 -30.90625 16.921875 -30.90625 C 19.878906 -30.90625 22.503906 -30.285156 24.796875 -29.046875 C 27.085938 -27.816406 28.878906 -26.050781 30.171875 -23.75 C 31.460938 -21.457031 32.109375 -18.785156 32.109375 -15.734375 Z M 22.546875 -18.1875 C 22.546875 -19.789062 22 -21.0625 20.90625 -22 C 19.820312 -22.945312 18.457031 -23.421875 16.8125 -23.421875 C 15.25 -23.421875 13.929688 -22.96875 12.859375 -22.0625 C 11.785156 -21.15625 11.125 -19.863281 10.875 -18.1875 Z M 22.546875 -18.1875" style="stroke:none"/></g></g><g style="fill:#bb8100;fill-opacity:1;"><g transform="translate(173.724121, 198.052746)"><path d="M 15.78125 0.4375 C 13.125 0.4375 10.753906 -0.015625 8.671875 -0.921875 C 6.597656 -1.835938 4.960938 -3.085938 3.765625 -4.671875 C 2.566406 -6.253906 1.894531 -8.03125 1.75 -10 L 10.96875 -10 C 11.082031 -8.9375 11.578125 -8.078125 12.453125 -7.421875 C 13.328125 -6.765625 14.398438 -6.4375 15.671875 -6.4375 C 16.835938 -6.4375 17.738281 -6.664062 18.375 -7.125 C 19.007812 -7.582031 19.328125 -8.175781 19.328125 -8.90625 C 19.328125 -9.78125 18.867188 -10.425781 17.953125 -10.84375 C 17.046875 -11.257812 15.578125 -11.722656 13.546875 -12.234375 C 11.359375 -12.742188 9.535156 -13.28125 8.078125 -13.84375 C 6.617188 -14.40625 5.363281 -15.296875 4.3125 -16.515625 C 3.257812 -17.734375 2.734375 -19.382812 2.734375 -21.46875 C 2.734375 -23.207031 3.210938 -24.796875 4.171875 -26.234375 C 5.140625 -27.671875 6.5625 -28.804688 8.4375 -29.640625 C 10.3125 -30.484375 12.539062 -30.90625 15.125 -30.90625 C 18.945312 -30.90625 21.957031 -29.957031 24.15625 -28.0625 C 26.363281 -26.175781 27.628906 -23.664062 27.953125 -20.53125 L 19.328125 -20.53125 C 19.179688 -21.582031 18.71875 -22.414062 17.9375 -23.03125 C 17.15625 -23.65625 16.128906 -23.96875 14.859375 -23.96875 C 13.765625 -23.96875 12.925781 -23.757812 12.34375 -23.34375 C 11.757812 -22.925781 11.46875 -22.351562 11.46875 -21.625 C 11.46875 -20.75 11.929688 -20.09375 12.859375 -19.65625 C 13.785156 -19.21875 15.234375 -18.78125 17.203125 -18.34375 C 19.460938 -17.757812 21.300781 -17.1875 22.71875 -16.625 C 24.132812 -16.0625 25.378906 -15.148438 26.453125 -13.890625 C 27.523438 -12.640625 28.082031 -10.957031 28.125 -8.84375 C 28.125 -7.0625 27.625 -5.46875 26.625 -4.0625 C 25.625 -2.664062 24.1875 -1.566406 22.3125 -0.765625 C 20.4375 0.0351562 18.257812 0.4375 15.78125 0.4375 Z M 15.78125 0.4375" style="stroke:none"/></g></g><g style="fill:#bb8100;fill-opacity:1;"><g transform="translate(204.196654, 198.052746)"><path d="M 9.171875 -24.40625 C 10.160156 -26.125 11.625 -27.554688 13.5625 -28.703125 C 15.507812 -29.847656 17.78125 -30.421875 20.375 -30.421875 C 23.03125 -30.421875 25.441406 -29.78125 27.609375 -28.5 C 29.773438 -27.226562 31.472656 -25.4375 32.703125 -23.125 C 33.941406 -20.8125 34.5625 -18.128906 34.5625 -15.078125 C 34.5625 -12.054688 33.941406 -9.359375 32.703125 -6.984375 C 31.472656 -4.617188 29.773438 -2.78125 27.609375 -1.46875 C 25.441406 -0.164062 23.03125 0.484375 20.375 0.484375 C 17.820312 0.484375 15.570312 -0.0859375 13.625 -1.234375 C 11.675781 -2.378906 10.191406 -3.804688 9.171875 -5.515625 L 9.171875 14.203125 L 4.203125 14.203125 L 4.203125 -29.921875 L 9.171875 -29.921875 Z M 29.484375 -15.078125 C 29.484375 -17.328125 29.03125 -19.289062 28.125 -20.96875 C 27.21875 -22.644531 25.988281 -23.921875 24.4375 -24.796875 C 22.882812 -25.671875 21.179688 -26.109375 19.328125 -26.109375 C 17.503906 -26.109375 15.816406 -25.660156 14.265625 -24.765625 C 12.722656 -23.867188 11.488281 -22.570312 10.5625 -20.875 C 9.632812 -19.1875 9.171875 -17.234375 9.171875 -15.015625 C 9.171875 -12.753906 9.632812 -10.773438 10.5625 -9.078125 C 11.488281 -7.390625 12.722656 -6.097656 14.265625 -5.203125 C 15.816406 -4.316406 17.503906 -3.875 19.328125 -3.875 C 21.179688 -3.875 22.882812 -4.316406 24.4375 -5.203125 C 25.988281 -6.097656 27.21875 -7.390625 28.125 -9.078125 C 29.03125 -10.773438 29.484375 -12.773438 29.484375 -15.078125 Z M 29.484375 -15.078125" style="stroke:none"/></g></g><g style="fill:#bb8100;fill-opacity:1;"><g transform="translate(241.112317, 198.052746)"><path d="M 2.34375 -15.078125 C 2.34375 -18.128906 2.960938 -20.8125 4.203125 -23.125 C 5.441406 -25.4375 7.144531 -27.226562 9.3125 -28.5 C 11.476562 -29.78125 13.890625 -30.421875 16.546875 -30.421875 C 19.171875 -30.421875 21.445312 -29.851562 23.375 -28.71875 C 25.300781 -27.59375 26.738281 -26.175781 27.6875 -24.46875 L 27.6875 -29.921875 L 32.71875 -29.921875 L 32.71875 0 L 27.6875 0 L 27.6875 -5.5625 C 26.707031 -3.820312 25.242188 -2.378906 23.296875 -1.234375 C 21.347656 -0.0859375 19.078125 0.484375 16.484375 0.484375 C 13.828125 0.484375 11.425781 -0.164062 9.28125 -1.46875 C 7.132812 -2.78125 5.441406 -4.617188 4.203125 -6.984375 C 2.960938 -9.359375 2.34375 -12.054688 2.34375 -15.078125 Z M 27.6875 -15.015625 C 27.6875 -17.273438 27.226562 -19.238281 26.3125 -20.90625 C 25.40625 -22.582031 24.175781 -23.867188 22.625 -24.765625 C 21.082031 -25.660156 19.382812 -26.109375 17.53125 -26.109375 C 15.675781 -26.109375 13.984375 -25.671875 12.453125 -24.796875 C 10.921875 -23.921875 9.695312 -22.644531 8.78125 -20.96875 C 7.875 -19.289062 7.421875 -17.328125 7.421875 -15.078125 C 7.421875 -12.773438 7.875 -10.773438 8.78125 -9.078125 C 9.695312 -7.390625 10.921875 -6.097656 12.453125 -5.203125 C 13.984375 -4.316406 15.675781 -3.875 17.53125 -3.875 C 19.382812 -3.875 21.082031 -4.316406 22.625 -5.203125 C 24.175781 -6.097656 25.40625 -7.390625 26.3125 -9.078125 C 27.226562 -10.773438 27.6875 -12.753906 27.6875 -15.015625 Z M 27.6875 -15.015625" style="stroke:none"/></g></g><g style="fill:#bb8100;fill-opacity:1;"><g transform="translate(278.02798, 198.052746)"><path d="M 29.984375 -29.921875 L 11.953125 14.09375 L 6.828125 14.09375 L 12.71875 -0.328125 L 0.65625 -29.921875 L 6.171875 -29.921875 L 15.5625 -5.671875 L 24.84375 -29.921875 Z M 29.984375 -29.921875" style="stroke:none"/></g></g><g style="fill:#000000;fill-opacity:1;"><g transform="translate(118.672423, 225.344304)"><path d="M 8.1875 -6.71875 L 8.1875 0 L 6.5625 0 L 6.5625 -4.03125 L 5.0625 0 L 3.734375 0 L 2.234375 -4.03125 L 2.234375 0 L 0.59375 0 L 0.59375 -6.71875 L 2.53125 -6.71875 L 4.40625 -2.0625 L 6.265625 -6.71875 Z M 8.1875 -6.71875" style="stroke:none"/></g></g><g style="fill:#000000;fill-opacity:1;"><g transform="translate(128.296055, 225.344304)"><path d="M 0.265625 -2.671875 C 0.265625 -3.222656 0.367188 -3.707031 0.578125 -4.125 C 0.785156 -4.539062 1.066406 -4.859375 1.421875 -5.078125 C 1.773438 -5.296875 2.175781 -5.40625 2.625 -5.40625 C 3 -5.40625 3.328125 -5.328125 3.609375 -5.171875 C 3.890625 -5.023438 4.109375 -4.828125 4.265625 -4.578125 L 4.265625 -5.328125 L 5.90625 -5.328125 L 5.90625 0 L 4.265625 0 L 4.265625 -0.75 C 4.109375 -0.5 3.882812 -0.296875 3.59375 -0.140625 C 3.3125 0.00390625 2.984375 0.078125 2.609375 0.078125 C 2.171875 0.078125 1.773438 -0.0351562 1.421875 -0.265625 C 1.066406 -0.492188 0.785156 -0.816406 0.578125 -1.234375 C 0.367188 -1.648438 0.265625 -2.128906 0.265625 -2.671875 Z M 4.265625 -2.671875 C 4.265625 -3.078125 4.148438 -3.394531 3.921875 -3.625 C 3.691406 -3.863281 3.414062 -3.984375 3.09375 -3.984375 C 2.769531 -3.984375 2.492188 -3.867188 2.265625 -3.640625 C 2.046875 -3.410156 1.9375 -3.085938 1.9375 -2.671875 C 1.9375 -2.265625 2.046875 -1.941406 2.265625 -1.703125 C 2.492188 -1.460938 2.769531 -1.34375 3.09375 -1.34375 C 3.414062 -1.34375 3.691406 -1.460938 3.921875 -1.703125 C 4.148438 -1.941406 4.265625 -2.265625 4.265625 -2.671875 Z M 4.265625 -2.671875" style="stroke:none"/></g></g><g style="fill:#000000;fill-opacity:1;"><g transform="translate(135.63562, 225.344304)"><path d="M 3.84375 -5.390625 C 4.46875 -5.390625 4.96875 -5.1875 5.34375 -4.78125 C 5.71875 -4.375 5.90625 -3.820312 5.90625 -3.125 L 5.90625 0 L 4.28125 0 L 4.28125 -2.890625 C 4.28125 -3.253906 4.1875 -3.535156 4 -3.734375 C 3.8125 -3.929688 3.5625 -4.03125 3.25 -4.03125 C 2.9375 -4.03125 2.6875 -3.929688 2.5 -3.734375 C 2.320312 -3.535156 2.234375 -3.253906 2.234375 -2.890625 L 2.234375 0 L 0.59375 0 L 0.59375 -5.328125 L 2.234375 -5.328125 L 2.234375 -4.625 C 2.398438 -4.863281 2.617188 -5.050781 2.890625 -5.1875 C 3.171875 -5.320312 3.488281 -5.390625 3.84375 -5.390625 Z M 3.84375 -5.390625" style="stroke:none"/></g></g><g style="fill:#000000;fill-opacity:1;"><g transform="translate(142.927404, 225.344304)"><path d="M 0.265625 -2.671875 C 0.265625 -3.222656 0.367188 -3.707031 0.578125 -4.125 C 0.785156 -4.539062 1.066406 -4.859375 1.421875 -5.078125 C 1.773438 -5.296875 2.175781 -5.40625 2.625 -5.40625 C 3 -5.40625 3.328125 -5.328125 3.609375 -5.171875 C 3.890625 -5.023438 4.109375 -4.828125 4.265625 -4.578125 L 4.265625 -5.328125 L 5.90625 -5.328125 L 5.90625 0 L 4.265625 0 L 4.265625 -0.75 C 4.109375 -0.5 3.882812 -0.296875 3.59375 -0.140625 C 3.3125 0.00390625 2.984375 0.078125 2.609375 0.078125 C 2.171875 0.078125 1.773438 -0.0351562 1.421875 -0.265625 C 1.066406 -0.492188 0.785156 -0.816406 0.578125 -1.234375 C 0.367188 -1.648438 0.265625 -2.128906 0.265625 -2.671875 Z M 4.265625 -2.671875 C 4.265625 -3.078125 4.148438 -3.394531 3.921875 -3.625 C 3.691406 -3.863281 3.414062 -3.984375 3.09375 -3.984375 C 2.769531 -3.984375 2.492188 -3.867188 2.265625 -3.640625 C 2.046875 -3.410156 1.9375 -3.085938 1.9375 -2.671875 C 1.9375 -2.265625 2.046875 -1.941406 2.265625 -1.703125 C 2.492188 -1.460938 2.769531 -1.34375 3.09375 -1.34375 C 3.414062 -1.34375 3.691406 -1.460938 3.921875 -1.703125 C 4.148438 -1.941406 4.265625 -2.265625 4.265625 -2.671875 Z M 4.265625 -2.671875" style="stroke:none"/></g></g><g style="fill:#000000;fill-opacity:1;"><g transform="translate(150.266969, 225.344304)"><path d="M 2.625 -5.40625 C 3 -5.40625 3.328125 -5.328125 3.609375 -5.171875 C 3.890625 -5.023438 4.109375 -4.828125 4.265625 -4.578125 L 4.265625 -5.328125 L 5.90625 -5.328125 L 5.90625 -0.015625 C 5.90625 0.484375 5.804688 0.929688 5.609375 1.328125 C 5.410156 1.722656 5.113281 2.035156 4.71875 2.265625 C 4.320312 2.503906 3.828125 2.625 3.234375 2.625 C 2.441406 2.625 1.800781 2.4375 1.3125 2.0625 C 0.820312 1.695312 0.539062 1.191406 0.46875 0.546875 L 2.078125 0.546875 C 2.128906 0.753906 2.25 0.914062 2.4375 1.03125 C 2.632812 1.15625 2.875 1.21875 3.15625 1.21875 C 3.488281 1.21875 3.753906 1.117188 3.953125 0.921875 C 4.160156 0.722656 4.265625 0.410156 4.265625 -0.015625 L 4.265625 -0.765625 C 4.109375 -0.515625 3.890625 -0.3125 3.609375 -0.15625 C 3.328125 0 3 0.078125 2.625 0.078125 C 2.175781 0.078125 1.773438 -0.0351562 1.421875 -0.265625 C 1.066406 -0.492188 0.785156 -0.816406 0.578125 -1.234375 C 0.367188 -1.648438 0.265625 -2.128906 0.265625 -2.671875 C 0.265625 -3.222656 0.367188 -3.707031 0.578125 -4.125 C 0.785156 -4.539062 1.066406 -4.859375 1.421875 -5.078125 C 1.773438 -5.296875 2.175781 -5.40625 2.625 -5.40625 Z M 4.265625 -2.671875 C 4.265625 -3.078125 4.148438 -3.394531 3.921875 -3.625 C 3.691406 -3.863281 3.414062 -3.984375 3.09375 -3.984375 C 2.769531 -3.984375 2.492188 -3.867188 2.265625 -3.640625 C 2.046875 -3.410156 1.9375 -3.085938 1.9375 -2.671875 C 1.9375 -2.265625 2.046875 -1.941406 2.265625 -1.703125 C 2.492188 -1.460938 2.769531 -1.34375 3.09375 -1.34375 C 3.414062 -1.34375 3.691406 -1.460938 3.921875 -1.703125 C 4.148438 -1.941406 4.265625 -2.265625 4.265625 -2.671875 Z M 4.265625 -2.671875" style="stroke:none"/></g></g><g style="fill:#000000;fill-opacity:1;"><g transform="translate(157.606534, 225.344304)"><path d="M 5.625 -2.75 C 5.625 -2.601562 5.613281 -2.445312 5.59375 -2.28125 L 1.890625 -2.28125 C 1.921875 -1.945312 2.03125 -1.691406 2.21875 -1.515625 C 2.40625 -1.335938 2.632812 -1.25 2.90625 -1.25 C 3.3125 -1.25 3.597656 -1.421875 3.765625 -1.765625 L 5.5 -1.765625 C 5.40625 -1.421875 5.242188 -1.109375 5.015625 -0.828125 C 4.785156 -0.546875 4.492188 -0.320312 4.140625 -0.15625 C 3.785156 0 3.394531 0.078125 2.96875 0.078125 C 2.445312 0.078125 1.976562 -0.03125 1.5625 -0.25 C 1.15625 -0.476562 0.835938 -0.800781 0.609375 -1.21875 C 0.378906 -1.632812 0.265625 -2.117188 0.265625 -2.671875 C 0.265625 -3.222656 0.378906 -3.707031 0.609375 -4.125 C 0.835938 -4.539062 1.15625 -4.859375 1.5625 -5.078125 C 1.96875 -5.296875 2.4375 -5.40625 2.96875 -5.40625 C 3.476562 -5.40625 3.929688 -5.296875 4.328125 -5.078125 C 4.734375 -4.867188 5.050781 -4.5625 5.28125 -4.15625 C 5.507812 -3.757812 5.625 -3.289062 5.625 -2.75 Z M 3.953125 -3.1875 C 3.953125 -3.46875 3.851562 -3.691406 3.65625 -3.859375 C 3.46875 -4.023438 3.226562 -4.109375 2.9375 -4.109375 C 2.664062 -4.109375 2.4375 -4.023438 2.25 -3.859375 C 2.0625 -3.703125 1.945312 -3.476562 1.90625 -3.1875 Z M 3.953125 -3.1875" style="stroke:none"/></g></g><g style="fill:#000000;fill-opacity:1;"><g transform="translate(164.344032, 225.344304)"><path d="M 1.359375 0.078125 C 1.066406 0.078125 0.828125 -0.00390625 0.640625 -0.171875 C 0.460938 -0.347656 0.375 -0.554688 0.375 -0.796875 C 0.375 -1.054688 0.460938 -1.269531 0.640625 -1.4375 C 0.828125 -1.613281 1.066406 -1.703125 1.359375 -1.703125 C 1.640625 -1.703125 1.867188 -1.613281 2.046875 -1.4375 C 2.234375 -1.269531 2.328125 -1.054688 2.328125 -0.796875 C 2.328125 -0.554688 2.234375 -0.347656 2.046875 -0.171875 C 1.867188 -0.00390625 1.640625 0.078125 1.359375 0.078125 Z M 1.359375 0.078125" style="stroke:none"/></g></g><g style="fill:#000000;fill-opacity:1;"><g transform="translate(167.889567, 225.344304)"><path d="" style="stroke:none"/></g></g><g style="fill:#000000;fill-opacity:1;"><g transform="translate(170.766138, 225.344304)"><path d="M 4.015625 0 L 2.625 -2.53125 L 2.234375 -2.53125 L 2.234375 0 L 0.59375 0 L 0.59375 -6.71875 L 3.34375 -6.71875 C 3.863281 -6.71875 4.3125 -6.625 4.6875 -6.4375 C 5.0625 -6.25 5.335938 -5.992188 5.515625 -5.671875 C 5.703125 -5.347656 5.796875 -4.988281 5.796875 -4.59375 C 5.796875 -4.15625 5.671875 -3.757812 5.421875 -3.40625 C 5.171875 -3.050781 4.800781 -2.800781 4.3125 -2.65625 L 5.859375 0 Z M 2.234375 -3.6875 L 3.234375 -3.6875 C 3.535156 -3.6875 3.757812 -3.757812 3.90625 -3.90625 C 4.0625 -4.050781 4.140625 -4.257812 4.140625 -4.53125 C 4.140625 -4.789062 4.0625 -4.992188 3.90625 -5.140625 C 3.757812 -5.285156 3.535156 -5.359375 3.234375 -5.359375 L 2.234375 -5.359375 Z M 2.234375 -3.6875" style="stroke:none"/></g></g><g style="fill:#000000;fill-opacity:1;"><g transform="translate(177.847669, 225.344304)"><path d="M 5.625 -2.75 C 5.625 -2.601562 5.613281 -2.445312 5.59375 -2.28125 L 1.890625 -2.28125 C 1.921875 -1.945312 2.03125 -1.691406 2.21875 -1.515625 C 2.40625 -1.335938 2.632812 -1.25 2.90625 -1.25 C 3.3125 -1.25 3.597656 -1.421875 3.765625 -1.765625 L 5.5 -1.765625 C 5.40625 -1.421875 5.242188 -1.109375 5.015625 -0.828125 C 4.785156 -0.546875 4.492188 -0.320312 4.140625 -0.15625 C 3.785156 0 3.394531 0.078125 2.96875 0.078125 C 2.445312 0.078125 1.976562 -0.03125 1.5625 -0.25 C 1.15625 -0.476562 0.835938 -0.800781 0.609375 -1.21875 C 0.378906 -1.632812 0.265625 -2.117188 0.265625 -2.671875 C 0.265625 -3.222656 0.378906 -3.707031 0.609375 -4.125 C 0.835938 -4.539062 1.15625 -4.859375 1.5625 -5.078125 C 1.96875 -5.296875 2.4375 -5.40625 2.96875 -5.40625 C 3.476562 -5.40625 3.929688 -5.296875 4.328125 -5.078125 C 4.734375 -4.867188 5.050781 -4.5625 5.28125 -4.15625 C 5.507812 -3.757812 5.625 -3.289062 5.625 -2.75 Z M 3.953125 -3.1875 C 3.953125 -3.46875 3.851562 -3.691406 3.65625 -3.859375 C 3.46875 -4.023438 3.226562 -4.109375 2.9375 -4.109375 C 2.664062 -4.109375 2.4375 -4.023438 2.25 -3.859375 C 2.0625 -3.703125 1.945312 -3.476562 1.90625 -3.1875 Z M 3.953125 -3.1875" style="stroke:none"/></g></g><g style="fill:#000000;fill-opacity:1;"><g transform="translate(184.585166, 225.344304)"><path d="M 7.40625 -5.390625 C 8.0625 -5.390625 8.585938 -5.1875 8.984375 -4.78125 C 9.378906 -4.382812 9.578125 -3.832031 9.578125 -3.125 L 9.578125 0 L 7.953125 0 L 7.953125 -2.890625 C 7.953125 -3.234375 7.859375 -3.5 7.671875 -3.6875 C 7.492188 -3.882812 7.242188 -3.984375 6.921875 -3.984375 C 6.597656 -3.984375 6.347656 -3.882812 6.171875 -3.6875 C 5.992188 -3.5 5.90625 -3.234375 5.90625 -2.890625 L 5.90625 0 L 4.28125 0 L 4.28125 -2.890625 C 4.28125 -3.234375 4.1875 -3.5 4 -3.6875 C 3.820312 -3.882812 3.570312 -3.984375 3.25 -3.984375 C 2.925781 -3.984375 2.675781 -3.882812 2.5 -3.6875 C 2.320312 -3.5 2.234375 -3.234375 2.234375 -2.890625 L 2.234375 0 L 0.59375 0 L 0.59375 -5.328125 L 2.234375 -5.328125 L 2.234375 -4.671875 C 2.398438 -4.890625 2.613281 -5.0625 2.875 -5.1875 C 3.144531 -5.320312 3.445312 -5.390625 3.78125 -5.390625 C 4.1875 -5.390625 4.546875 -5.300781 4.859375 -5.125 C 5.171875 -4.957031 5.421875 -4.71875 5.609375 -4.40625 C 5.785156 -4.695312 6.035156 -4.929688 6.359375 -5.109375 C 6.679688 -5.296875 7.03125 -5.390625 7.40625 -5.390625 Z M 7.40625 -5.390625" style="stroke:none"/></g></g><g style="fill:#000000;fill-opacity:1;"><g transform="translate(195.55629, 225.344304)"><path d="M 1.421875 -5.890625 C 1.128906 -5.890625 0.890625 -5.972656 0.703125 -6.140625 C 0.523438 -6.304688 0.4375 -6.515625 0.4375 -6.765625 C 0.4375 -7.023438 0.523438 -7.238281 0.703125 -7.40625 C 0.890625 -7.570312 1.128906 -7.65625 1.421875 -7.65625 C 1.703125 -7.65625 1.929688 -7.570312 2.109375 -7.40625 C 2.285156 -7.238281 2.375 -7.023438 2.375 -6.765625 C 2.375 -6.515625 2.285156 -6.304688 2.109375 -6.140625 C 1.929688 -5.972656 1.703125 -5.890625 1.421875 -5.890625 Z M 2.234375 -5.328125 L 2.234375 0 L 0.59375 0 L 0.59375 -5.328125 Z M 2.234375 -5.328125" style="stroke:none"/></g></g><g style="fill:#000000;fill-opacity:1;"><g transform="translate(199.226067, 225.344304)"><path d="M 3.84375 -5.390625 C 4.46875 -5.390625 4.96875 -5.1875 5.34375 -4.78125 C 5.71875 -4.375 5.90625 -3.820312 5.90625 -3.125 L 5.90625 0 L 4.28125 0 L 4.28125 -2.890625 C 4.28125 -3.253906 4.1875 -3.535156 4 -3.734375 C 3.8125 -3.929688 3.5625 -4.03125 3.25 -4.03125 C 2.9375 -4.03125 2.6875 -3.929688 2.5 -3.734375 C 2.320312 -3.535156 2.234375 -3.253906 2.234375 -2.890625 L 2.234375 0 L 0.59375 0 L 0.59375 -5.328125 L 2.234375 -5.328125 L 2.234375 -4.625 C 2.398438 -4.863281 2.617188 -5.050781 2.890625 -5.1875 C 3.171875 -5.320312 3.488281 -5.390625 3.84375 -5.390625 Z M 3.84375 -5.390625" style="stroke:none"/></g></g><g style="fill:#000000;fill-opacity:1;"><g transform="translate(206.51785, 225.344304)"><path d="M 0.265625 -2.671875 C 0.265625 -3.222656 0.367188 -3.707031 0.578125 -4.125 C 0.785156 -4.539062 1.066406 -4.859375 1.421875 -5.078125 C 1.773438 -5.296875 2.175781 -5.40625 2.625 -5.40625 C 2.96875 -5.40625 3.285156 -5.332031 3.578125 -5.1875 C 3.867188 -5.039062 4.097656 -4.84375 4.265625 -4.59375 L 4.265625 -7.078125 L 5.90625 -7.078125 L 5.90625 0 L 4.265625 0 L 4.265625 -0.765625 C 4.109375 -0.503906 3.890625 -0.296875 3.609375 -0.140625 C 3.328125 0.00390625 3 0.078125 2.625 0.078125 C 2.175781 0.078125 1.773438 -0.0351562 1.421875 -0.265625 C 1.066406 -0.492188 0.785156 -0.816406 0.578125 -1.234375 C 0.367188 -1.648438 0.265625 -2.128906 0.265625 -2.671875 Z M 4.265625 -2.671875 C 4.265625 -3.078125 4.148438 -3.394531 3.921875 -3.625 C 3.691406 -3.863281 3.414062 -3.984375 3.09375 -3.984375 C 2.769531 -3.984375 2.492188 -3.867188 2.265625 -3.640625 C 2.046875 -3.410156 1.9375 -3.085938 1.9375 -2.671875 C 1.9375 -2.265625 2.046875 -1.941406 2.265625 -1.703125 C 2.492188 -1.460938 2.769531 -1.34375 3.09375 -1.34375 C 3.414062 -1.34375 3.691406 -1.460938 3.921875 -1.703125 C 4.148438 -1.941406 4.265625 -2.265625 4.265625 -2.671875 Z M 4.265625 -2.671875" style="stroke:none"/></g></g><g style="fill:#000000;fill-opacity:1;"><g transform="translate(213.857416, 225.344304)"><path d="M 1.359375 0.078125 C 1.066406 0.078125 0.828125 -0.00390625 0.640625 -0.171875 C 0.460938 -0.347656 0.375 -0.554688 0.375 -0.796875 C 0.375 -1.054688 0.460938 -1.269531 0.640625 -1.4375 C 0.828125 -1.613281 1.066406 -1.703125 1.359375 -1.703125 C 1.640625 -1.703125 1.867188 -1.613281 2.046875 -1.4375 C 2.234375 -1.269531 2.328125 -1.054688 2.328125 -0.796875 C 2.328125 -0.554688 2.234375 -0.347656 2.046875 -0.171875 C 1.867188 -0.00390625 1.640625 0.078125 1.359375 0.078125 Z M 1.359375 0.078125" style="stroke:none"/></g></g><g style="fill:#000000;fill-opacity:1;"><g transform="translate(217.402951, 225.344304)"><path d="" style="stroke:none"/></g></g><g style="fill:#000000;fill-opacity:1;"><g transform="translate(220.279522, 225.344304)"><path d="M 3.015625 0.0625 C 2.523438 0.0625 2.085938 -0.015625 1.703125 -0.171875 C 1.316406 -0.328125 1.003906 -0.5625 0.765625 -0.875 C 0.535156 -1.1875 0.414062 -1.566406 0.40625 -2.015625 L 2.140625 -2.015625 C 2.171875 -1.765625 2.257812 -1.570312 2.40625 -1.4375 C 2.550781 -1.3125 2.738281 -1.25 2.96875 -1.25 C 3.21875 -1.25 3.410156 -1.300781 3.546875 -1.40625 C 3.691406 -1.519531 3.765625 -1.675781 3.765625 -1.875 C 3.765625 -2.039062 3.707031 -2.175781 3.59375 -2.28125 C 3.476562 -2.394531 3.335938 -2.484375 3.171875 -2.546875 C 3.015625 -2.617188 2.785156 -2.703125 2.484375 -2.796875 C 2.054688 -2.929688 1.703125 -3.0625 1.421875 -3.1875 C 1.148438 -3.320312 0.914062 -3.519531 0.71875 -3.78125 C 0.519531 -4.039062 0.421875 -4.382812 0.421875 -4.8125 C 0.421875 -5.4375 0.644531 -5.925781 1.09375 -6.28125 C 1.550781 -6.632812 2.144531 -6.8125 2.875 -6.8125 C 3.613281 -6.8125 4.207031 -6.632812 4.65625 -6.28125 C 5.101562 -5.925781 5.347656 -5.429688 5.390625 -4.796875 L 3.609375 -4.796875 C 3.597656 -5.015625 3.519531 -5.1875 3.375 -5.3125 C 3.226562 -5.4375 3.039062 -5.5 2.8125 -5.5 C 2.613281 -5.5 2.453125 -5.445312 2.328125 -5.34375 C 2.210938 -5.238281 2.15625 -5.085938 2.15625 -4.890625 C 2.15625 -4.671875 2.253906 -4.5 2.453125 -4.375 C 2.660156 -4.257812 2.976562 -4.128906 3.40625 -3.984375 C 3.84375 -3.835938 4.195312 -3.695312 4.46875 -3.5625 C 4.738281 -3.425781 4.972656 -3.226562 5.171875 -2.96875 C 5.367188 -2.71875 5.46875 -2.394531 5.46875 -2 C 5.46875 -1.613281 5.367188 -1.265625 5.171875 -0.953125 C 4.984375 -0.640625 4.703125 -0.390625 4.328125 -0.203125 C 3.960938 -0.0234375 3.523438 0.0625 3.015625 0.0625 Z M 3.015625 0.0625" style="stroke:none"/></g></g><g style="fill:#000000;fill-opacity:1;"><g transform="translate(227.007455, 225.344304)"><path d="M 5.625 -2.75 C 5.625 -2.601562 5.613281 -2.445312 5.59375 -2.28125 L 1.890625 -2.28125 C 1.921875 -1.945312 2.03125 -1.691406 2.21875 -1.515625 C 2.40625 -1.335938 2.632812 -1.25 2.90625 -1.25 C 3.3125 -1.25 3.597656 -1.421875 3.765625 -1.765625 L 5.5 -1.765625 C 5.40625 -1.421875 5.242188 -1.109375 5.015625 -0.828125 C 4.785156 -0.546875 4.492188 -0.320312 4.140625 -0.15625 C 3.785156 0 3.394531 0.078125 2.96875 0.078125 C 2.445312 0.078125 1.976562 -0.03125 1.5625 -0.25 C 1.15625 -0.476562 0.835938 -0.800781 0.609375 -1.21875 C 0.378906 -1.632812 0.265625 -2.117188 0.265625 -2.671875 C 0.265625 -3.222656 0.378906 -3.707031 0.609375 -4.125 C 0.835938 -4.539062 1.15625 -4.859375 1.5625 -5.078125 C 1.96875 -5.296875 2.4375 -5.40625 2.96875 -5.40625 C 3.476562 -5.40625 3.929688 -5.296875 4.328125 -5.078125 C 4.734375 -4.867188 5.050781 -4.5625 5.28125 -4.15625 C 5.507812 -3.757812 5.625 -3.289062 5.625 -2.75 Z M 3.953125 -3.1875 C 3.953125 -3.46875 3.851562 -3.691406 3.65625 -3.859375 C 3.46875 -4.023438 3.226562 -4.109375 2.9375 -4.109375 C 2.664062 -4.109375 2.4375 -4.023438 2.25 -3.859375 C 2.0625 -3.703125 1.945312 -3.476562 1.90625 -3.1875 Z M 3.953125 -3.1875" style="stroke:none"/></g></g><g style="fill:#000000;fill-opacity:1;"><g transform="translate(233.744953, 225.344304)"><path d="M 3.5625 -1.390625 L 3.5625 0 L 2.734375 0 C 2.140625 0 1.675781 -0.144531 1.34375 -0.4375 C 1.007812 -0.726562 0.84375 -1.203125 0.84375 -1.859375 L 0.84375 -3.984375 L 0.203125 -3.984375 L 0.203125 -5.328125 L 0.84375 -5.328125 L 0.84375 -6.640625 L 2.484375 -6.640625 L 2.484375 -5.328125 L 3.5625 -5.328125 L 3.5625 -3.984375 L 2.484375 -3.984375 L 2.484375 -1.84375 C 2.484375 -1.675781 2.519531 -1.554688 2.59375 -1.484375 C 2.675781 -1.421875 2.804688 -1.390625 2.984375 -1.390625 Z M 3.5625 -1.390625" style="stroke:none"/></g></g><g style="fill:#000000;fill-opacity:1;"><g transform="translate(238.475533, 225.344304)"><path d="M 3.5625 -1.390625 L 3.5625 0 L 2.734375 0 C 2.140625 0 1.675781 -0.144531 1.34375 -0.4375 C 1.007812 -0.726562 0.84375 -1.203125 0.84375 -1.859375 L 0.84375 -3.984375 L 0.203125 -3.984375 L 0.203125 -5.328125 L 0.84375 -5.328125 L 0.84375 -6.640625 L 2.484375 -6.640625 L 2.484375 -5.328125 L 3.5625 -5.328125 L 3.5625 -3.984375 L 2.484375 -3.984375 L 2.484375 -1.84375 C 2.484375 -1.675781 2.519531 -1.554688 2.59375 -1.484375 C 2.675781 -1.421875 2.804688 -1.390625 2.984375 -1.390625 Z M 3.5625 -1.390625" style="stroke:none"/></g></g><g style="fill:#000000;fill-opacity:1;"><g transform="translate(243.206113, 225.344304)"><path d="M 2.234375 -7.078125 L 2.234375 0 L 0.59375 0 L 0.59375 -7.078125 Z M 2.234375 -7.078125" style="stroke:none"/></g></g><g style="fill:#000000;fill-opacity:1;"><g transform="translate(246.87589, 225.344304)"><path d="M 5.625 -2.75 C 5.625 -2.601562 5.613281 -2.445312 5.59375 -2.28125 L 1.890625 -2.28125 C 1.921875 -1.945312 2.03125 -1.691406 2.21875 -1.515625 C 2.40625 -1.335938 2.632812 -1.25 2.90625 -1.25 C 3.3125 -1.25 3.597656 -1.421875 3.765625 -1.765625 L 5.5 -1.765625 C 5.40625 -1.421875 5.242188 -1.109375 5.015625 -0.828125 C 4.785156 -0.546875 4.492188 -0.320312 4.140625 -0.15625 C 3.785156 0 3.394531 0.078125 2.96875 0.078125 C 2.445312 0.078125 1.976562 -0.03125 1.5625 -0.25 C 1.15625 -0.476562 0.835938 -0.800781 0.609375 -1.21875 C 0.378906 -1.632812 0.265625 -2.117188 0.265625 -2.671875 C 0.265625 -3.222656 0.378906 -3.707031 0.609375 -4.125 C 0.835938 -4.539062 1.15625 -4.859375 1.5625 -5.078125 C 1.96875 -5.296875 2.4375 -5.40625 2.96875 -5.40625 C 3.476562 -5.40625 3.929688 -5.296875 4.328125 -5.078125 C 4.734375 -4.867188 5.050781 -4.5625 5.28125 -4.15625 C 5.507812 -3.757812 5.625 -3.289062 5.625 -2.75 Z M 3.953125 -3.1875 C 3.953125 -3.46875 3.851562 -3.691406 3.65625 -3.859375 C 3.46875 -4.023438 3.226562 -4.109375 2.9375 -4.109375 C 2.664062 -4.109375 2.4375 -4.023438 2.25 -3.859375 C 2.0625 -3.703125 1.945312 -3.476562 1.90625 -3.1875 Z M 3.953125 -3.1875" style="stroke:none"/></g></g><g style="fill:#000000;fill-opacity:1;"><g transform="translate(253.613387, 225.344304)"><path d="M 1.359375 0.078125 C 1.066406 0.078125 0.828125 -0.00390625 0.640625 -0.171875 C 0.460938 -0.347656 0.375 -0.554688 0.375 -0.796875 C 0.375 -1.054688 0.460938 -1.269531 0.640625 -1.4375 C 0.828125 -1.613281 1.066406 -1.703125 1.359375 -1.703125 C 1.640625 -1.703125 1.867188 -1.613281 2.046875 -1.4375 C 2.234375 -1.269531 2.328125 -1.054688 2.328125 -0.796875 C 2.328125 -0.554688 2.234375 -0.347656 2.046875 -0.171875 C 1.867188 -0.00390625 1.640625 0.078125 1.359375 0.078125 Z M 1.359375 0.078125" style="stroke:none"/></g></g></g></svg>